<mxfile host="app.diagrams.net" modified="2022-06-15T07:14:12.225Z" agent="5.0 (Windows NT 10.0; Win64; x64) AppleWebKit/537.36 (KHTML, like Gecko) Chrome/84.0.4147.105 Safari/537.36" etag="9CpdP-WjqDTXuA0F2tiH" version="20.0.1" type="github">
  <diagram id="Y0OI4d2qTV6Y2nPtw35C" name="Page-1">
    <mxGraphModel dx="2844" dy="1508" grid="1" gridSize="10" guides="1" tooltips="1" connect="1" arrows="1" fold="1" page="1" pageScale="1" pageWidth="827" pageHeight="1169" math="0" shadow="0">
      <root>
        <mxCell id="0" />
        <mxCell id="1" parent="0" />
        <mxCell id="gdyWh-qwNyWKZYFmByXy-1" value="" style="endArrow=none;html=1;rounded=0;strokeWidth=5;fillColor=#b0e3e6;strokeColor=#0000CC;" parent="1" edge="1">
          <mxGeometry width="50" height="50" relative="1" as="geometry">
            <mxPoint x="240" y="64" as="sourcePoint" />
            <mxPoint x="440" y="64" as="targetPoint" />
          </mxGeometry>
        </mxCell>
        <mxCell id="gdyWh-qwNyWKZYFmByXy-2" value="" style="endArrow=none;html=1;rounded=0;strokeWidth=5;strokeColor=#CC0000;" parent="1" edge="1">
          <mxGeometry width="50" height="50" relative="1" as="geometry">
            <mxPoint x="240" y="104" as="sourcePoint" />
            <mxPoint x="440" y="104" as="targetPoint" />
          </mxGeometry>
        </mxCell>
        <mxCell id="gdyWh-qwNyWKZYFmByXy-3" value="" style="endArrow=none;html=1;rounded=0;strokeWidth=5;fillColor=#dae8fc;strokeColor=#0000CC;" parent="1" edge="1">
          <mxGeometry width="50" height="50" relative="1" as="geometry">
            <mxPoint x="240" y="200" as="sourcePoint" />
            <mxPoint x="440" y="200" as="targetPoint" />
          </mxGeometry>
        </mxCell>
        <mxCell id="gdyWh-qwNyWKZYFmByXy-4" value="" style="endArrow=none;html=1;rounded=0;strokeWidth=5;strokeColor=#CC0000;" parent="1" edge="1">
          <mxGeometry width="50" height="50" relative="1" as="geometry">
            <mxPoint x="240" y="336" as="sourcePoint" />
            <mxPoint x="440" y="336" as="targetPoint" />
          </mxGeometry>
        </mxCell>
        <mxCell id="gdyWh-qwNyWKZYFmByXy-5" value="" style="endArrow=none;html=1;rounded=0;strokeWidth=5;fillColor=#e3c800;strokeColor=#CC0000;" parent="1" edge="1">
          <mxGeometry width="50" height="50" relative="1" as="geometry">
            <mxPoint x="240" y="240" as="sourcePoint" />
            <mxPoint x="440" y="240" as="targetPoint" />
          </mxGeometry>
        </mxCell>
        <mxCell id="gdyWh-qwNyWKZYFmByXy-6" value="" style="endArrow=none;html=1;rounded=0;strokeWidth=5;strokeColor=#0000CC;" parent="1" edge="1">
          <mxGeometry width="50" height="50" relative="1" as="geometry">
            <mxPoint x="240" y="296" as="sourcePoint" />
            <mxPoint x="440" y="296" as="targetPoint" />
          </mxGeometry>
        </mxCell>
        <mxCell id="gdyWh-qwNyWKZYFmByXy-25" style="edgeStyle=orthogonalEdgeStyle;rounded=0;orthogonalLoop=1;jettySize=auto;html=1;fontSize=18;strokeColor=#333333;strokeWidth=2;" parent="1" edge="1">
          <mxGeometry relative="1" as="geometry">
            <mxPoint x="339" y="370" as="sourcePoint" />
            <mxPoint x="339" y="430" as="targetPoint" />
          </mxGeometry>
        </mxCell>
        <mxCell id="gdyWh-qwNyWKZYFmByXy-9" value="" style="rounded=0;whiteSpace=wrap;html=1;fontSize=18;fillColor=none;strokeColor=#82b366;strokeWidth=2;" parent="1" vertex="1">
          <mxGeometry x="216" y="180" width="250" height="180" as="geometry" />
        </mxCell>
        <mxCell id="gdyWh-qwNyWKZYFmByXy-10" value="&lt;font style=&quot;font-size: 32px;&quot;&gt;2 copies&lt;/font&gt;" style="text;html=1;align=center;verticalAlign=middle;resizable=0;points=[];autosize=1;strokeColor=none;fillColor=none;fontSize=18;strokeWidth=0;" parent="1" vertex="1">
          <mxGeometry x="185" y="146" width="130" height="30" as="geometry" />
        </mxCell>
        <mxCell id="gdyWh-qwNyWKZYFmByXy-11" value="" style="endArrow=none;html=1;rounded=0;strokeWidth=5;fillColor=#dae8fc;strokeColor=#0000CC;" parent="1" edge="1">
          <mxGeometry width="50" height="50" relative="1" as="geometry">
            <mxPoint x="100" y="457" as="sourcePoint" />
            <mxPoint x="300" y="457" as="targetPoint" />
          </mxGeometry>
        </mxCell>
        <mxCell id="gdyWh-qwNyWKZYFmByXy-12" value="" style="endArrow=none;html=1;rounded=0;strokeWidth=5;strokeColor=#CC0000;" parent="1" edge="1">
          <mxGeometry width="50" height="50" relative="1" as="geometry">
            <mxPoint x="381" y="598" as="sourcePoint" />
            <mxPoint x="581" y="598" as="targetPoint" />
          </mxGeometry>
        </mxCell>
        <mxCell id="gdyWh-qwNyWKZYFmByXy-13" value="" style="endArrow=none;html=1;rounded=0;strokeWidth=5;fillColor=#e3c800;strokeColor=#CC0000;" parent="1" edge="1">
          <mxGeometry width="50" height="50" relative="1" as="geometry">
            <mxPoint x="101" y="599.5" as="sourcePoint" />
            <mxPoint x="301" y="599.5" as="targetPoint" />
          </mxGeometry>
        </mxCell>
        <mxCell id="gdyWh-qwNyWKZYFmByXy-14" value="" style="endArrow=none;html=1;rounded=0;strokeWidth=5;strokeColor=#0000CC;" parent="1" edge="1">
          <mxGeometry width="50" height="50" relative="1" as="geometry">
            <mxPoint x="381" y="457" as="sourcePoint" />
            <mxPoint x="581" y="457" as="targetPoint" />
          </mxGeometry>
        </mxCell>
        <mxCell id="gdyWh-qwNyWKZYFmByXy-30" style="edgeStyle=orthogonalEdgeStyle;rounded=0;orthogonalLoop=1;jettySize=auto;html=1;fontSize=36;strokeColor=#333333;strokeWidth=2;entryX=0.527;entryY=-0.1;entryDx=0;entryDy=0;entryPerimeter=0;" parent="1" target="gdyWh-qwNyWKZYFmByXy-27" edge="1">
          <mxGeometry relative="1" as="geometry">
            <mxPoint x="339" y="630" as="sourcePoint" />
            <Array as="points">
              <mxPoint x="339" y="670" />
              <mxPoint x="820" y="670" />
              <mxPoint x="820" y="130" />
              <mxPoint x="925" y="130" />
              <mxPoint x="925" y="165" />
            </Array>
          </mxGeometry>
        </mxCell>
        <mxCell id="gdyWh-qwNyWKZYFmByXy-17" value="" style="rounded=0;whiteSpace=wrap;html=1;fontSize=18;fillColor=none;strokeColor=#82b366;strokeWidth=2;" parent="1" vertex="1">
          <mxGeometry x="84" y="437" width="516" height="180" as="geometry" />
        </mxCell>
        <mxCell id="gdyWh-qwNyWKZYFmByXy-18" value="&lt;font style=&quot;font-size: 32px;&quot;&gt;4 copies&lt;/font&gt;" style="text;html=1;align=center;verticalAlign=middle;resizable=0;points=[];autosize=1;strokeColor=none;fillColor=none;fontSize=18;" parent="1" vertex="1">
          <mxGeometry x="56" y="404" width="130" height="30" as="geometry" />
        </mxCell>
        <mxCell id="gdyWh-qwNyWKZYFmByXy-19" value="" style="endArrow=none;html=1;rounded=0;strokeWidth=5;fillColor=#b0e3e6;strokeColor=#CC0000;" parent="1" edge="1">
          <mxGeometry width="50" height="50" relative="1" as="geometry">
            <mxPoint x="101" y="497" as="sourcePoint" />
            <mxPoint x="301" y="497" as="targetPoint" />
          </mxGeometry>
        </mxCell>
        <mxCell id="gdyWh-qwNyWKZYFmByXy-20" value="" style="endArrow=none;html=1;rounded=0;strokeWidth=5;strokeColor=#0000CC;" parent="1" edge="1">
          <mxGeometry width="50" height="50" relative="1" as="geometry">
            <mxPoint x="101" y="559.5" as="sourcePoint" />
            <mxPoint x="301" y="559.5" as="targetPoint" />
          </mxGeometry>
        </mxCell>
        <mxCell id="gdyWh-qwNyWKZYFmByXy-21" value="" style="endArrow=none;html=1;rounded=0;strokeWidth=5;fillColor=#b0e3e6;strokeColor=#CC0000;" parent="1" edge="1">
          <mxGeometry width="50" height="50" relative="1" as="geometry">
            <mxPoint x="381" y="497" as="sourcePoint" />
            <mxPoint x="581" y="497" as="targetPoint" />
          </mxGeometry>
        </mxCell>
        <mxCell id="gdyWh-qwNyWKZYFmByXy-22" value="" style="endArrow=none;html=1;rounded=0;strokeWidth=5;strokeColor=#0000CC;" parent="1" edge="1">
          <mxGeometry width="50" height="50" relative="1" as="geometry">
            <mxPoint x="381" y="558.5" as="sourcePoint" />
            <mxPoint x="581" y="558.5" as="targetPoint" />
          </mxGeometry>
        </mxCell>
        <mxCell id="gdyWh-qwNyWKZYFmByXy-26" style="edgeStyle=orthogonalEdgeStyle;rounded=0;orthogonalLoop=1;jettySize=auto;html=1;exitX=0.5;exitY=1;exitDx=0;exitDy=0;entryX=0.5;entryY=0;entryDx=0;entryDy=0;fontSize=18;strokeColor=#333333;strokeWidth=2;" parent="1" edge="1">
          <mxGeometry relative="1" as="geometry">
            <mxPoint x="339" y="113" as="sourcePoint" />
            <mxPoint x="339" y="173" as="targetPoint" />
          </mxGeometry>
        </mxCell>
        <mxCell id="gdyWh-qwNyWKZYFmByXy-27" value="&lt;font style=&quot;font-size: 32px;&quot;&gt;8 copies&lt;/font&gt;" style="text;html=1;align=center;verticalAlign=middle;resizable=0;points=[];autosize=1;strokeColor=none;fillColor=none;fontSize=18;" parent="1" vertex="1">
          <mxGeometry x="856" y="180" width="130" height="30" as="geometry" />
        </mxCell>
        <mxCell id="gdyWh-qwNyWKZYFmByXy-28" value="&lt;font style=&quot;font-size: 32px;&quot;&gt;16 copies&lt;/font&gt;" style="text;html=1;align=center;verticalAlign=middle;resizable=0;points=[];autosize=1;strokeColor=none;fillColor=none;fontSize=18;" parent="1" vertex="1">
          <mxGeometry x="846" y="310" width="150" height="30" as="geometry" />
        </mxCell>
        <mxCell id="gdyWh-qwNyWKZYFmByXy-29" value="&lt;font style=&quot;font-size: 36px;&quot;&gt;...&lt;/font&gt;" style="text;html=1;align=center;verticalAlign=middle;resizable=0;points=[];autosize=1;strokeColor=none;fillColor=none;fontSize=18;rotation=90;" parent="1" vertex="1">
          <mxGeometry x="911" y="390" width="50" height="30" as="geometry" />
        </mxCell>
        <mxCell id="gdyWh-qwNyWKZYFmByXy-33" value="&lt;font style=&quot;font-size: 32px;&quot;&gt;Many cycles&lt;/font&gt;" style="text;html=1;align=center;verticalAlign=middle;resizable=0;points=[];autosize=1;strokeColor=none;fillColor=none;fontSize=18;" parent="1" vertex="1">
          <mxGeometry x="826" y="470" width="190" height="30" as="geometry" />
        </mxCell>
      </root>
    </mxGraphModel>
  </diagram>
</mxfile>
